<svg width="81" height="41" viewBox="0 0 81 41" fill="none" xmlns="http://www.w3.org/2000/svg">
<g style="mix-blend-mode:luminosity" clip-path="url(#clip0_10_443)">
<path d="M8.08353 8.28566C8.44072 7.48271 8.74752 6.83056 10.9951 6.83056H23.9699C24.6853 6.83056 25.4 6.47922 25.4 5.47652V1.916C25.4 1.51232 25.8091 0.959917 26.8815 0.959917H53.7509C54.5167 0.959917 55.1306 1.36178 55.1306 2.315V5.12518C55.1306 5.87734 55.4878 6.68003 56.6116 6.68003H78.1681C78.9339 6.68003 79.9556 6.88004 79.4963 7.83431C79.036 8.78649 72.0384 22.7301 71.5637 23.6617C71.3816 24.0188 71.2397 24.4948 69.8229 24.4948H56.5718C55.9436 24.4948 54.9116 24.4948 54.9116 25.6879V29.0065C54.9116 29.4836 54.548 30.1996 53.3943 30.1996H26.8091C25.9791 30.1996 25.3724 29.7808 25.3724 28.9666V26.045C25.3724 25.409 25.0279 24.4758 24.0571 24.4758H1.74092C1.03212 24.4758 0.364689 23.9388 0.789757 22.9064C1.21483 21.8722 8.08353 8.28566 8.08353 8.28566Z" fill="#C7D6EE"/>
<path d="M2.49551 21.3551L3.11574 21.3569L9.21307 9.44167L8.59258 9.43985L2.49551 21.3551Z" fill="url(#paint0_linear_10_443)"/>
<path d="M24.1099 23.0378H3.23834C2.51019 23.0378 2.25483 22.7112 2.53829 22.1551C4.11871 19.0678 9.31578 8.91498 9.45049 8.64542C9.60853 8.32846 9.99117 7.94092 10.6979 7.94092H24.7036C26.1565 7.94092 26.4042 7.31716 26.4042 6.19049V2.83494C26.4042 2.38359 26.7088 2.08356 27.245 2.08356H52.8973C53.5862 2.08356 53.8915 2.30728 53.8915 2.75863V5.23753C53.8915 6.21445 53.7034 7.79117 55.9203 7.79117H77.1172C78.0692 7.79117 78.3163 8.4217 77.8125 9.41972C75.9367 13.1362 71.3208 21.9483 71.1774 22.2473C70.9955 22.6273 70.4309 22.9617 69.5291 22.9617H55.6153C54.4674 22.9617 53.3211 23.7128 53.3211 24.8403V27.7039C53.3211 28.2255 53.0021 28.5951 52.4349 28.5951H27.5441C26.7741 28.5951 26.4803 28.1667 26.4803 27.5953V24.99C26.4803 24.0892 25.8685 23.0378 24.1099 23.0378Z" fill="#E9CF98"/>
<path d="M51.9438 22.3655L54.8673 25.3583C54.8673 25.3583 55.0759 24.7022 55.8685 24.5394L52.5947 21.5399C52.5947 21.5399 52.0689 21.8321 51.9438 22.3655Z" fill="white"/>
<path d="M24.1777 24.4975C24.1777 24.4975 25.3471 24.5395 25.3471 26.0563L28.0609 22.1189L27.3094 21.5855L24.1777 24.4975Z" fill="white"/>
<path d="M53.0228 9.58813L56.1054 6.63706C56.1054 6.63706 55.6875 6.58679 55.2688 5.91928L52.2122 8.97297L53.0228 9.58813Z" fill="white"/>
<path d="M51.6897 3.55859L54.5376 1.17319C54.5376 1.17319 54.8513 1.35212 54.9818 1.63496L52.0034 4.32898L51.6897 3.55859Z" fill="white"/>
<path d="M25.4202 2.03679C25.4202 1.54273 25.8875 0.959859 26.6525 0.959859L28.8131 3.5833C28.8131 3.5833 28.1663 3.5833 28.0648 3.81744C27.9619 4.05184 27.8601 4.55371 27.8601 4.55371L25.4202 2.03679Z" fill="white"/>
<path d="M24.4876 6.76193C24.4876 6.76193 25.4109 6.61817 25.4109 5.6488L27.5527 8.12379L26.1876 9.0929L24.4876 6.76193Z" fill="white"/>
<path d="M40.3245 0.959978L40.2261 2.08848H52.5679C52.9728 2.08848 53.2006 2.18849 53.3533 2.48669L54.72 1.29334C54.72 1.29334 54.3766 0.959978 53.7511 0.959978H40.3245Z" fill="url(#paint1_linear_10_443)"/>
<path d="M26.6523 0.959918C26.3232 0.959918 25.9432 1.11983 25.7417 1.36751L26.6274 2.31213C26.6274 2.31213 26.8042 2.08842 27.513 2.08842H40.2261L40.3245 0.959918H26.6523Z" fill="url(#paint2_linear_10_443)"/>
<path d="M25.4203 2.03707V5.47648C25.4203 6.01638 25.3102 6.14869 25.3102 6.14869L26.2874 7.16858C26.2874 7.16858 26.4271 6.81646 26.4271 6.60004V3.19213C26.4271 2.97701 26.4468 2.66344 26.4468 2.66344L25.5293 1.54744C25.5293 1.54744 25.4203 1.74251 25.4203 2.03707Z" fill="url(#paint3_linear_10_443)"/>
<path d="M53.9113 2.55872C53.9113 2.55872 53.8848 2.95876 53.8848 3.17389C53.8848 3.38901 53.9113 6.29425 53.9113 6.5099C53.9113 6.72502 54.2303 7.12402 54.2303 7.12402L55.3997 6.10777C55.3997 6.10777 55.1223 6.01635 55.1223 5.47646V2.03705C55.1223 1.74249 54.877 1.54741 54.877 1.54741L53.9113 2.55872Z" fill="url(#paint4_linear_10_443)"/>
<path d="M24.0438 6.83445C23.6773 6.83445 11.0868 6.84877 10.4159 6.84877C9.44245 6.84877 8.86995 7.27043 8.86995 7.27043L9.67076 8.32861C9.67076 8.32861 9.99109 7.94081 10.698 7.94081H24.9051C25.3999 7.94081 25.7716 7.721 25.7716 7.721L24.8433 6.62584C24.8433 6.62584 24.3875 6.83445 24.0438 6.83445Z" fill="url(#paint5_linear_10_443)"/>
<path d="M2.11924 22.2474L0.667437 23.2473C0.667437 23.2473 0.55235 23.6606 0.769259 23.9872C0.986699 24.3128 1.31869 24.3633 1.31869 24.3633L3.2083 23.0376C3.2083 23.0376 2.13886 22.9881 2.58382 22.2102C3.02878 21.4323 3.00465 21.139 3.00465 21.139C3.00465 21.139 2.48544 21.2229 2.11924 22.2474Z" fill="url(#paint6_linear_10_443)"/>
<path d="M6.10581 12.4556C4.94807 14.7959 1.05962 22.3141 0.923584 22.5826C0.787287 22.8501 0.650726 23.3179 0.650726 23.3179L2.1492 22.2474L9.17065 8.50856C9.17065 8.50856 7.26381 10.1139 6.10581 12.4556Z" fill="url(#paint7_linear_10_443)"/>
<path d="M3.23826 23.0702L1.31233 24.431C1.31233 24.431 23.2499 24.4841 23.8041 24.4841C24.3575 24.4841 24.59 24.588 24.59 24.588L25.5781 23.4853C25.5781 23.4853 24.6343 23.0702 24.1101 23.0702H3.23826Z" fill="url(#paint8_linear_10_443)"/>
<path d="M25.1527 25.1909C25.1527 25.1909 25.3548 25.5897 25.3548 25.9079V28.7569C25.3548 29.1645 25.5166 29.5179 25.5166 29.5179L26.4804 28.4027V24.9899C26.4804 24.4453 26.1747 23.9872 26.1747 23.9872L25.1527 25.1909Z" fill="url(#paint9_linear_10_443)"/>
<path d="M53.3181 24.6375V28.0503L54.8306 29.3502C54.8306 29.3502 54.8683 29.0036 54.8683 28.597V25.7467C54.8683 25.429 54.9619 25.229 54.9619 25.229L53.6395 23.9301C53.6395 23.9301 53.3181 24.0919 53.3181 24.6375Z" fill="url(#paint10_linear_10_443)"/>
<path d="M52.1866 28.62H40.2942V30.2053H53.4538C53.9012 30.2053 54.4228 29.9131 54.5219 29.8389L53.0306 28.4497C53.0306 28.4497 52.9322 28.62 52.1866 28.62Z" fill="url(#paint11_linear_10_443)"/>
<path d="M25.97 30.0073C25.97 30.0073 26.2763 30.2206 27.1322 30.2206C27.9874 30.2206 40.2942 30.2052 40.2942 30.2052V28.6199H27.592C27.3621 28.6199 27.2083 28.578 27.2083 28.578L25.97 30.0073Z" fill="url(#paint12_linear_10_443)"/>
<path d="M29.3862 3.55099C28.6973 3.55099 28.0094 3.92707 28.0094 4.67845V8.35903C28.0094 9.10937 27.5501 9.41017 27.015 9.41017H11.7863C11.1676 9.41017 10.689 9.66359 10.414 10.1748C10.1889 10.5949 6.38583 18.0814 5.15676 20.5009C4.89026 21.0257 5.12308 21.3447 5.80696 21.3447H27.0922C28.0094 21.3447 28.1627 22.1714 28.1627 22.997V25.8571C28.1627 26.384 28.6975 26.9849 29.3095 26.9849H40.0174V3.55099H29.3862Z" fill="url(#paint13_linear_10_443)"/>
<path d="M54.3207 23.3843L55.5468 24.6222C55.5468 24.6222 55.8528 24.4558 57.2837 24.4558H70.3606C70.6324 24.4558 71.007 24.3216 71.007 24.3216L64.0946 22.9504C64.0946 22.9504 56.0915 22.9559 55.7171 22.9504C55.703 22.9501 55.689 22.9499 55.6749 22.9499C54.8635 22.9499 54.3207 23.3843 54.3207 23.3843Z" fill="url(#paint14_linear_10_443)"/>
<path d="M54.781 7.57226C54.781 7.57226 55.3787 7.76837 55.8669 7.76837H76.4566C77.0832 7.76837 77.4488 7.81421 77.4488 7.81421L79.1128 6.84015C79.1128 6.84015 78.5787 6.6904 78.0449 6.6904H56.6616C56.1273 6.6904 55.9045 6.56773 55.9045 6.56773L54.781 7.57226Z" fill="url(#paint15_linear_10_443)"/>
<path d="M78.0556 8.34089C78.0556 8.34089 78.1497 8.85396 77.9718 9.20269C77.7944 9.55117 71.5711 21.5724 71.2903 22.1246C71.0084 22.6762 70.3736 22.8799 70.3736 22.8799L71.0826 24.2727C71.0826 24.2727 71.334 24.0852 71.4822 23.8958C71.6299 23.7073 79.2873 8.40366 79.5241 7.86688C79.7601 7.32959 79.5527 7.1353 79.5527 7.1353L78.0556 8.34089Z" fill="url(#paint16_linear_10_443)"/>
<path d="M69.7133 22.9835C68.896 22.9835 64.2985 23.0179 64.2985 23.0179L70.8368 24.3217C70.8368 24.3217 71.2457 24.1558 71.4502 23.8198C71.6549 23.4854 71.4496 23.3854 71.2115 23.5856C70.9737 23.7875 70.565 23.4531 70.7687 23.2187C70.9737 22.9835 71.1773 22.2475 71.1773 22.2475C71.1773 22.2475 70.5311 22.9835 69.7133 22.9835Z" fill="url(#paint17_linear_10_443)"/>
<path d="M8.88771 21.9484C4.60574 22.2292 3.23825 23.0243 3.23825 23.0243H23.6861C26.0113 23.0243 25.7459 23.3366 25.7329 23.3507L27.3977 21.6216C27.3977 21.6216 23.3533 21.6216 20.7838 21.5752C20.4571 21.5692 20.0906 21.5664 19.6905 21.5664C16.9441 21.5664 12.6256 21.7039 8.88771 21.9484ZM25.7324 23.3512C25.7324 23.3512 25.7327 23.3509 25.7329 23.3507L25.7324 23.3512Z" fill="url(#paint18_linear_10_443)"/>
<path d="M57.1172 21.5752C55.2978 21.6215 52.4335 21.6215 52.4335 21.6215L54.3424 23.3871C54.3424 23.3871 54.5389 22.974 56.2233 22.974C57.9087 22.974 70.054 22.9329 70.054 22.9329C70.054 22.9329 70.2588 22.2807 66.6827 22.0302C63.8655 21.8325 59.6143 21.5702 57.5592 21.5702C57.3977 21.5702 57.25 21.5718 57.1172 21.5752Z" fill="url(#paint19_linear_10_443)"/>
<path d="M52.7906 9.59482C52.7906 9.59482 55.6555 9.59482 57.4754 9.64144C59.2947 9.68806 70.324 9.19686 73.3578 8.9161C76.3908 8.63587 77.3587 7.841 77.3587 7.841C77.3587 7.841 58.0744 7.94205 56.3895 7.94205C54.7057 7.94205 54.9407 7.61415 54.9407 7.61415L52.7906 9.59482Z" fill="url(#paint20_linear_10_443)"/>
<path d="M26.2762 24.0377C26.2762 24.0377 26.4807 24.689 26.4807 25.1909V27.4487C26.4807 28.0503 26.6854 28.3522 26.6854 28.3522L28.422 26.6458C28.422 26.6458 28.1627 26.0441 28.1627 25.5925V23.0472C28.1627 22.4586 28.0131 21.9799 28.0131 21.9799L26.2762 24.0377Z" fill="url(#paint21_linear_10_443)"/>
<path d="M51.7594 23.0329C51.7594 23.6215 51.7188 25.1964 51.7188 25.6488C51.7188 26.0991 51.613 26.6458 51.613 26.6458L53.3496 28.3522C53.3496 28.3522 53.5546 28.0503 53.5546 27.4487V25.1909C53.5546 24.689 53.7591 24.0377 53.7591 24.0377L51.8992 21.9323C51.8992 21.9323 51.7594 22.4456 51.7594 23.0329Z" fill="url(#paint22_linear_10_443)"/>
<path d="M27.2473 28.5522L39.9153 28.6522L39.9665 28.6512V26.9849L28.9327 26.9458L27.2473 28.5522Z" fill="url(#paint23_linear_10_443)"/>
<path d="M40.0174 26.9849H39.9665V28.6512L52.9922 28.5028L50.8981 26.9459L40.0174 26.9849Z" fill="url(#paint24_linear_10_443)"/>
<path d="M27.4184 2.07909C27.0606 2.07909 26.7297 2.26843 26.7297 2.26843L28.4088 3.89099C28.4088 3.89099 28.5742 3.53861 29.7574 3.53861H40.0174V2.07909H27.4184Z" fill="url(#paint25_linear_10_443)"/>
<path d="M40.0174 2.07901V3.53853H50.2771C51.4603 3.53853 51.7053 4.04431 51.7053 4.04431L53.3838 2.42254C53.3838 2.42254 52.9744 2.07901 52.6167 2.07901H40.0174Z" fill="url(#paint26_linear_10_443)"/>
<path d="M26.4096 3.49655V6.44293C26.4096 6.79245 26.2534 7.20655 26.2534 7.20655L27.8978 9.03955C27.8978 9.03955 28.0089 8.88719 28.0089 8.12384C28.0089 7.35996 28.0752 4.37085 28.0752 4.37085L26.4314 2.55974C26.4314 2.55974 26.4096 3.03869 26.4096 3.49655Z" fill="url(#paint27_linear_10_443)"/>
<path d="M51.774 4.40601V8.06941C51.774 8.83303 52.1378 9.03955 52.1378 9.03955L54.1473 7.05134C54.1473 7.05134 53.8853 6.6354 53.8853 6.28693C53.8853 5.93741 53.8683 3.80725 53.8683 3.34913C53.8683 2.89101 53.8887 2.46728 53.8887 2.46728L51.774 4.40601Z" fill="url(#paint28_linear_10_443)"/>
<path d="M25.0504 7.98166H10.9523C10.5437 7.98166 9.87918 8.1322 9.675 8.33326L10.9523 9.63782C10.9523 9.63782 11.3095 9.38727 12.1782 9.38727H26.8382C27.2473 9.38727 27.6554 9.23595 27.6554 9.23595L26.0214 7.58084C26.0214 7.58084 25.6123 7.98166 25.0504 7.98166Z" fill="url(#paint29_linear_10_443)"/>
<path d="M68.961 21.3999C68.961 21.3999 69.7504 21.1085 69.9973 22.0294C69.9973 22.0294 70.1943 22.3209 70.7371 21.5445C71.2797 20.7697 76.4115 10.4014 76.3609 10.2548C76.3113 10.11 75.2753 9.9157 75.2753 9.9157L68.961 21.3999Z" fill="url(#paint30_linear_10_443)"/>
<path d="M75.4238 10.0139C75.6712 10.1587 75.9175 10.3529 75.5723 11.0793C75.2273 11.8049 71.2802 19.3648 70.442 20.8178C69.6033 22.2711 70.3423 22.8529 70.3423 22.8529C70.3423 22.8529 70.9845 22.5615 71.1773 22.2474C71.3717 21.9322 77.398 10.2071 77.8127 9.41978C78.2277 8.6322 77.9397 8.31706 77.9397 8.31706L75.4238 10.0139Z" fill="url(#paint31_linear_10_443)"/>
<path d="M40.0174 3.55099V26.9849H50.5675C51.1787 26.9849 51.7143 26.7593 51.7143 26.0822V22.5873C51.7143 21.9114 52.1725 21.3866 52.7084 21.3866H68.6237C69.1824 21.3866 69.6839 21.0658 69.975 20.5373C71.2754 18.1756 74.8571 11.3268 75.1281 10.7746C75.4587 10.1006 75.254 9.71021 74.4874 9.71021H53.3966C52.4793 9.71021 51.7899 9.03488 51.7899 8.20849V4.37763C51.7899 3.8518 51.4844 3.55099 50.7963 3.55099H40.0174Z" fill="url(#paint32_linear_10_443)"/>
<path d="M3.0659 22.3722L5.10771 21.1562C5.10771 21.1562 4.87383 21.0562 5.24136 20.3334C5.60942 19.6107 9.05689 12.7069 9.05689 12.7069L8.28764 12.5433L3.0659 22.3722Z" fill="url(#paint33_linear_10_443)"/>
<path d="M2.88107 21.4781C2.37009 22.3816 2.47297 22.7322 2.47297 22.7322L3.69859 21.9295C3.69859 21.9295 9.16402 11.5443 9.72591 10.3398C10.2881 9.13601 9.4504 8.6456 9.4504 8.6456C9.4504 8.6456 3.39205 20.5754 2.88107 21.4781Z" fill="url(#paint34_linear_10_443)"/>
<path d="M3.70808 23.0673C3.62694 23.1207 2.87996 23.2111 2.73411 23.0673C2.58774 22.9246 2.34352 22.8131 2.53868 22.6532C2.73411 22.493 5.13656 21.0905 5.13656 21.0905C5.13656 21.0905 4.84487 21.2497 7.31334 21.2497H27.06C27.5798 21.2497 28.0666 21.6 28.1319 21.8237C28.1971 22.0474 28.0669 22.1427 27.9046 22.1112C27.7429 22.0789 27.3199 21.9513 27.2226 21.7914C27.1253 21.6323 27.3525 21.5046 25.9233 21.5046C24.4943 21.5046 13.5817 21.6645 11.1138 21.8875C8.64529 22.1112 5.39642 21.9513 3.70808 23.0673Z" fill="white"/>
<path d="M76.645 7.88279C76.7258 7.83044 77.4736 7.74007 77.6195 7.88279C77.7653 8.02656 78.0095 8.13803 77.8144 8.29794C77.6195 8.45707 75.2162 9.8606 75.2162 9.8606C75.2162 9.8606 75.5076 9.70147 73.0397 9.70147H53.2925C52.7727 9.70147 52.2859 9.35117 52.2212 9.12745C52.1559 8.90347 52.2856 8.80736 52.4474 8.83992C52.6107 8.87221 53.0326 8.99983 53.1304 9.1587C53.2278 9.31887 53 9.44545 54.4295 9.44545C55.8591 9.44545 66.7703 9.28658 69.2398 9.06364C71.7075 8.83992 74.9566 8.99983 76.645 7.88279Z" fill="white"/>
<path d="M10.0837 9.72827C10.0837 9.50247 10.2112 9.07613 10.1094 8.95137C10.0071 8.82558 10.3136 8.67504 10.518 8.79979C10.7222 8.92559 11.1563 9.0256 11.2072 9.12639C11.2584 9.2264 11.1818 9.47695 10.901 9.57774C10.6199 9.67775 10.3645 9.90355 9.93043 10.831C9.49608 11.7603 7.01833 16.4758 7.01833 16.4758C7.01833 16.4758 7.37631 15.7237 7.22304 15.6979C7.06977 15.6731 6.71259 16.3006 6.71259 16.3006L10.0837 9.72827Z" fill="white"/>
<path d="M27.161 9.28454C26.9497 9.30538 26.8905 9.07801 27.0709 9.04832C27.2522 9.01863 27.4922 9.00457 27.7025 8.1912C27.9138 7.3781 27.7635 4.91092 27.733 4.46791C27.7025 4.02438 27.4925 3.49281 27.7937 3.25659C28.0942 3.01959 28.305 3.5225 29.0875 3.5225C29.8695 3.5225 31.645 3.46338 31.645 3.46338C31.645 3.46338 29.1477 3.6397 28.7258 3.6996C28.3047 3.75872 27.9435 4.08324 28.0035 4.6747C28.0642 5.26591 27.9138 8.31022 27.7937 8.635C27.6731 8.95977 27.462 9.25485 27.161 9.28454Z" fill="white"/>
<path d="M44.0101 3.4816C43.6789 3.49671 50.3546 3.55869 50.7754 3.55869C51.1967 3.55869 51.678 3.68423 51.7687 4.09755C51.8589 4.51192 51.795 5.86804 51.795 5.86804C51.795 5.86804 52.0023 4.12724 52.3033 3.80247C52.604 3.47666 52.5138 3.00447 52.1227 3.09198C51.7313 3.18157 48.6333 3.2769 44.0101 3.4816Z" fill="white"/>
<path d="M52.9249 21.599C52.7149 21.5685 52.4746 21.5399 52.4139 21.717C52.3537 21.893 52.6839 22.0113 52.3537 22.1873C52.0244 22.3645 51.7788 22.4731 51.7788 22.3256C51.7788 22.178 51.9491 21.4209 52.5797 21.4209C53.21 21.4209 68.7704 21.3914 69.012 21.3914C69.2512 21.3914 69.5519 21.4209 69.6715 21.6571C69.7913 21.893 69.9412 22.4827 70.0318 22.6598C70.1215 22.8369 69.9716 22.8369 69.7012 22.4827C69.4312 22.1285 68.7413 21.9819 68.2014 22.0113C67.6607 22.0407 52.9249 21.599 52.9249 21.599Z" fill="white"/>
<path d="M70.0915 22.0999C70.0915 22.0999 69.9416 21.7761 69.8515 21.5685C69.7613 21.3628 69.4916 21.2753 69.4916 21.2753C69.4916 21.2753 69.7913 20.92 70.2113 20.1543C70.6319 19.3889 72.6127 15.7323 72.8227 15.2312C72.8227 15.2312 72.3722 16.5884 73.243 15.4674C73.243 15.4674 70.4216 20.7135 70.2413 21.0677C70.0618 21.4219 70.0915 22.0999 70.0915 22.0999Z" fill="white"/>
<path d="M28.3496 26.2259C28.3496 26.2259 28.3854 26.6497 28.1349 26.8257C27.8837 27.0021 27.7761 27.319 27.9914 27.4602C28.2067 27.6011 28.3502 27.5305 28.4936 27.319C28.6371 27.1078 29.1399 26.9315 29.4626 27.0021C29.4626 27.0021 28.3496 27.1419 28.3496 26.2259Z" fill="white"/>
<path d="M43.8167 26.9811C43.8167 26.9811 49.8731 27.2944 50.2319 27.3105C50.5896 27.3267 50.8418 27.3381 50.8418 27.3381C50.8418 27.3381 50.199 27.2381 50.3892 27.0352L43.8167 26.9811Z" fill="white"/>
<path d="M50.995 26.9315C50.995 26.9315 50.8157 27.2133 51.1027 27.3534C51.3901 27.4943 51.6776 27.6352 51.8568 27.4237C52.0358 27.2125 51.7134 26.6487 51.7489 26.2611C51.7489 26.2611 51.8923 26.8609 50.995 26.9315Z" fill="white"/>
<path d="M58.3819 27.442H58.0464V28.0001H58.3819C58.5527 28.0001 58.6033 27.9334 58.6033 27.8238V27.6173C58.6033 27.4764 58.5365 27.442 58.3819 27.442ZM58.3819 28.1809H58.0464V28.64H57.8423V27.2581H58.3819C58.6874 27.2581 58.8075 27.3915 58.8075 27.6173V27.8238C58.8075 27.9735 58.7547 28.0743 58.6033 28.141L58.982 28.64H58.7401L58.3819 28.1809ZM58.319 29.0609C59.0392 29.0609 59.4174 28.5759 59.4174 27.9808C59.4174 27.3857 59.0392 26.8935 58.319 26.8935C57.598 26.8935 57.2112 27.3857 57.2112 27.9808C57.2112 28.5759 57.598 29.0609 58.319 29.0609ZM58.319 26.7107C59.1172 26.7107 59.6046 27.2774 59.6046 27.9782C59.6046 28.6694 59.1172 29.2445 58.319 29.2445C57.5161 29.2445 57.0245 28.6694 57.0245 27.9782C57.0245 27.2774 57.5161 26.7107 58.319 26.7107Z" fill="#2B2B2B"/>
<path d="M17.2645 35.8204H15.0359V33.0347H12.8854V39.96H15.0359V36.9739H17.2645V39.96H19.4172V33.0347H17.2645V35.8204Z" fill="#2B2B2B"/>
<path d="M56.8281 38.8072V33.0345H54.6769V39.9597H59.9067V38.8072H56.8281Z" fill="#2B2B2B"/>
<path d="M69.0581 33.0346V34.1895H71.0158V39.9598H73.166V34.1895H75.1252V33.0346H69.0581Z" fill="#2B2B2B"/>
<path d="M5.12524 34.4763C5.12524 33.6108 5.65756 33.0344 6.45604 33.0344H10.77V34.1882H7.67724C7.43675 34.1882 7.27862 34.3632 7.27862 34.6216V38.3723C7.27862 38.6328 7.43675 38.8071 7.67724 38.8071H10.77V39.9596H6.45604C5.65756 39.9596 5.12524 39.3818 5.12524 38.5173V34.4763Z" fill="#2B2B2B"/>
<path d="M42.5428 37.1505L44.4025 39.96H42.1157L40.4693 37.1033V36.2005H41.3579C41.5975 36.2005 41.7569 36.0252 41.7569 35.767V34.622C41.7569 34.3635 41.5975 34.1896 41.3579 34.1896H39.853V39.96H37.7006V33.0347H42.5782C43.3792 33.0347 43.9087 33.6111 43.9087 34.4766L43.9109 35.8764C43.9109 36.639 43.4421 37.1505 42.7357 37.1505H42.5428Z" fill="#2B2B2B"/>
<path d="M50.0005 38.8072C50.2385 38.8072 50.3988 38.6333 50.3988 38.3738V34.6218C50.3988 34.3636 50.2385 34.1883 50.0005 34.1883H48.5C48.2608 34.1883 48.1002 34.3636 48.1002 34.6218V38.3738C48.1002 38.6333 48.2608 38.8072 48.5 38.8072H50.0005ZM45.949 34.4764C45.949 33.6109 46.4794 33.0345 47.2785 33.0345H51.2205C52.0183 33.0345 52.5519 33.6109 52.5519 34.4764V38.5178C52.5519 39.3823 52.0183 39.9597 51.2205 39.9597H47.2785C46.4794 39.9597 45.949 39.3823 45.949 38.5178V34.4764Z" fill="#2B2B2B"/>
<path d="M28.9903 33.0346H31.2977L32.6745 38.3885C32.6849 38.4371 32.7202 38.4656 32.77 38.4656C32.8189 38.4656 32.8571 38.4371 32.8662 38.3885L34.2048 33.0346H36.0106L34.3426 38.9775C34.1406 39.6541 33.7758 39.9598 33.0099 39.9598H31.9362C31.4436 39.9598 31.0419 39.7102 30.8005 38.9724L28.9903 33.0346Z" fill="#2B2B2B"/>
<path d="M23.7433 38.5887C23.7433 38.7215 23.8229 38.8061 23.9437 38.8061H27.4796V39.96H22.9214C22.1232 39.96 21.5915 39.3822 21.5915 38.5191V34.4766C21.5915 33.6111 22.1232 33.0347 22.9214 33.0347H27.4796V34.1896H23.9437C23.8229 34.1896 23.7433 34.2755 23.7433 34.406V35.8194H27.0738V36.9742H23.7433V38.5887Z" fill="#2B2B2B"/>
<path d="M63.5575 38.5887C63.5575 38.7215 63.6364 38.8061 63.7551 38.8061H67.2928V39.96H62.7343C61.9365 39.96 61.4016 39.3822 61.4016 38.5191V34.4766C61.4016 33.6111 61.9365 33.0347 62.7343 33.0347H67.2928V34.1896H63.7551C63.6364 34.1896 63.5575 34.2755 63.5575 34.406V35.8194H66.8858V36.9742H63.5575V38.5887Z" fill="#2B2B2B"/>
</g>
<defs>
<linearGradient id="paint0_linear_10_443" x1="8.79889" y1="9.64362" x2="8.76764" y2="21.4209" gradientUnits="userSpaceOnUse">
<stop stop-color="#C7D6EE"/>
<stop offset="0.185394" stop-color="#91AFC8"/>
<stop offset="1" stop-color="#002334"/>
</linearGradient>
<linearGradient id="paint1_linear_10_443" x1="43.5266" y1="-2.18514" x2="50.7616" y2="5.18116" gradientUnits="userSpaceOnUse">
<stop stop-color="#E1E8F5"/>
<stop offset="0.89888" stop-color="#92A5C1"/>
<stop offset="0.955063" stop-color="#476886"/>
<stop offset="1" stop-color="#E1E8F5"/>
</linearGradient>
<linearGradient id="paint2_linear_10_443" x1="29.5064" y1="5.13987" x2="36.9077" y2="-2.39581" gradientUnits="userSpaceOnUse">
<stop stop-color="#E1E8F5"/>
<stop offset="0.0393219" stop-color="#476886"/>
<stop offset="0.0898895" stop-color="#92A5C1"/>
<stop offset="1" stop-color="#E1E8F5"/>
</linearGradient>
<linearGradient id="paint3_linear_10_443" x1="24.6791" y1="5.48409" x2="27.092" y2="3.19321" gradientUnits="userSpaceOnUse">
<stop stop-color="#E1E8F5"/>
<stop offset="0.157303" stop-color="#C7D6EE"/>
<stop offset="1" stop-color="#E1E8F5"/>
</linearGradient>
<linearGradient id="paint4_linear_10_443" x1="55.9064" y1="5.57411" x2="53.3516" y2="3.14846" gradientUnits="userSpaceOnUse">
<stop stop-color="#E1E8F5"/>
<stop offset="0.157303" stop-color="#C7D6EE"/>
<stop offset="1" stop-color="#E1E8F5"/>
</linearGradient>
<linearGradient id="paint5_linear_10_443" x1="13.0718" y1="11.669" x2="21.3729" y2="3.21721" gradientUnits="userSpaceOnUse">
<stop stop-color="#476886"/>
<stop offset="0.129211" stop-color="#92A5C1"/>
<stop offset="1" stop-color="#E1E8F5"/>
</linearGradient>
<linearGradient id="paint6_linear_10_443" x1="2.48051" y1="23.396" x2="1.51368" y2="21.9902" gradientUnits="userSpaceOnUse">
<stop stop-color="#002334"/>
<stop offset="0.106735" stop-color="white"/>
<stop offset="0.185394" stop-color="#91AFC8"/>
<stop offset="0.241577" stop-color="#002334"/>
<stop offset="0.533707" stop-color="#5E738F"/>
<stop offset="0.758423" stop-color="#002334"/>
<stop offset="1" stop-color="#002334"/>
</linearGradient>
<linearGradient id="paint7_linear_10_443" x1="9.554" y1="13.5922" x2="1.98272" y2="17.5153" gradientUnits="userSpaceOnUse">
<stop stop-color="#91AFC8"/>
<stop offset="1" stop-color="#002334"/>
</linearGradient>
<linearGradient id="paint8_linear_10_443" x1="13.7051" y1="25.4045" x2="13.1403" y2="22.1435" gradientUnits="userSpaceOnUse">
<stop stop-color="#A5B9CC"/>
<stop offset="1" stop-color="#002334"/>
</linearGradient>
<linearGradient id="paint9_linear_10_443" x1="25.3921" y1="26.7525" x2="26.3639" y2="26.7525" gradientUnits="userSpaceOnUse">
<stop stop-color="#5E738F"/>
<stop offset="0.48877" stop-color="#91AFC8"/>
<stop offset="1" stop-color="#91AFC8"/>
</linearGradient>
<linearGradient id="paint10_linear_10_443" x1="54.6654" y1="26.6401" x2="53.4622" y2="26.6401" gradientUnits="userSpaceOnUse">
<stop stop-color="#5E738F"/>
<stop offset="0.320221" stop-color="#91AFC8"/>
<stop offset="1" stop-color="#91AFC8"/>
</linearGradient>
<linearGradient id="paint11_linear_10_443" x1="45.6253" y1="32.2622" x2="48.8285" y2="26.6134" gradientUnits="userSpaceOnUse">
<stop stop-color="#A5B9CC"/>
<stop offset="1" stop-color="#002334"/>
</linearGradient>
<linearGradient id="paint12_linear_10_443" x1="31.7562" y1="26.9727" x2="34.9843" y2="32.6654" gradientUnits="userSpaceOnUse">
<stop stop-color="#002334"/>
<stop offset="0.775284" stop-color="#A5B9CC"/>
<stop offset="1" stop-color="#A5B9CC"/>
</linearGradient>
<linearGradient id="paint13_linear_10_443" x1="18.5787" y1="5.54535" x2="32.9946" y2="30.9676" gradientUnits="userSpaceOnUse">
<stop stop-color="#FFEFCF"/>
<stop offset="0.460678" stop-color="#FFE4A6"/>
<stop offset="1" stop-color="#BC956E"/>
</linearGradient>
<linearGradient id="paint14_linear_10_443" x1="59.8334" y1="26.9516" x2="63.9055" y2="22.3302" gradientUnits="userSpaceOnUse">
<stop stop-color="#5E738F"/>
<stop offset="0.606735" stop-color="#91AFC8"/>
<stop offset="1" stop-color="#C7DFF4"/>
</linearGradient>
<linearGradient id="paint15_linear_10_443" x1="63.9841" y1="2.16571" x2="69.3525" y2="11.6327" gradientUnits="userSpaceOnUse">
<stop stop-color="#E1E8F5"/>
<stop offset="0.814606" stop-color="#7F97B4"/>
<stop offset="0.904495" stop-color="#476886"/>
<stop offset="1" stop-color="#002334"/>
</linearGradient>
<linearGradient id="paint16_linear_10_443" x1="70.3812" y1="23.5834" x2="79.1299" y2="8.15522" gradientUnits="userSpaceOnUse">
<stop stop-color="#8CA0B5"/>
<stop offset="0.140442" stop-color="#E1E8F5"/>
<stop offset="0.814606" stop-color="#7F97B4"/>
<stop offset="0.904495" stop-color="#476886"/>
<stop offset="1" stop-color="#002334"/>
</linearGradient>
<linearGradient id="paint17_linear_10_443" x1="67.2725" y1="23.8417" x2="70.4274" y2="21.9871" gradientUnits="userSpaceOnUse">
<stop stop-color="#002334"/>
<stop offset="0.814606" stop-color="#A5B9CC"/>
<stop offset="0.887634" stop-color="#002334"/>
<stop offset="1" stop-color="#002334"/>
</linearGradient>
<linearGradient id="paint18_linear_10_443" x1="9.88753" y1="16.9895" x2="20.1138" y2="27.4013" gradientUnits="userSpaceOnUse">
<stop stop-color="#D4BC7B"/>
<stop offset="0.331467" stop-color="#7F5F39"/>
<stop offset="1" stop-color="#D4BC7B"/>
</linearGradient>
<linearGradient id="paint19_linear_10_443" x1="65.1441" y1="18.4464" x2="57.8397" y2="25.8834" gradientUnits="userSpaceOnUse">
<stop stop-color="#D4BC7B"/>
<stop offset="0.331467" stop-color="#7F5F39"/>
<stop offset="1" stop-color="#D4BC7B"/>
</linearGradient>
<linearGradient id="paint20_linear_10_443" x1="71.3717" y1="2.53295" x2="59.5653" y2="14.5536" gradientUnits="userSpaceOnUse">
<stop stop-color="#D4BC7B"/>
<stop offset="0.331467" stop-color="#7F5F39"/>
<stop offset="1" stop-color="#D4BC7B"/>
</linearGradient>
<linearGradient id="paint21_linear_10_443" x1="26.6634" y1="25.166" x2="28.2338" y2="25.166" gradientUnits="userSpaceOnUse">
<stop stop-color="#D3BD8B"/>
<stop offset="1" stop-color="#7F5F39"/>
</linearGradient>
<linearGradient id="paint22_linear_10_443" x1="53.3719" y1="25.1423" x2="51.8012" y2="25.1423" gradientUnits="userSpaceOnUse">
<stop stop-color="#D3BD8B"/>
<stop offset="1" stop-color="#7F5F39"/>
</linearGradient>
<linearGradient id="paint23_linear_10_443" x1="32.4538" y1="25.8069" x2="35.2946" y2="30.8166" gradientUnits="userSpaceOnUse">
<stop stop-color="#7F5F39"/>
<stop offset="0.646072" stop-color="#D3BD8B"/>
<stop offset="0.887634" stop-color="#FFE4A6"/>
<stop offset="1" stop-color="#FFE4A6"/>
</linearGradient>
<linearGradient id="paint24_linear_10_443" x1="47.6035" y1="25.8316" x2="44.5001" y2="31.3045" gradientUnits="userSpaceOnUse">
<stop stop-color="#7F5F39"/>
<stop offset="0.455063" stop-color="#D3BD8B"/>
<stop offset="0.887634" stop-color="#FFE4A6"/>
<stop offset="1" stop-color="#FFE4A6"/>
</linearGradient>
<linearGradient id="paint25_linear_10_443" x1="30.3751" y1="5.8489" x2="36.9942" y2="-0.890428" gradientUnits="userSpaceOnUse">
<stop stop-color="#D4BC7B"/>
<stop offset="0.0393219" stop-color="#7F5F39"/>
<stop offset="0.106735" stop-color="#D1AC75"/>
<stop offset="1" stop-color="#D4BC7B"/>
</linearGradient>
<linearGradient id="paint26_linear_10_443" x1="49.7581" y1="5.98374" x2="43.0233" y2="-0.87332" gradientUnits="userSpaceOnUse">
<stop stop-color="#D4BC7B"/>
<stop offset="0.0393219" stop-color="#7F5F39"/>
<stop offset="0.106735" stop-color="#D1AC75"/>
<stop offset="1" stop-color="#D4BC7B"/>
</linearGradient>
<linearGradient id="paint27_linear_10_443" x1="25.9114" y1="6.94751" x2="28.3759" y2="4.60768" gradientUnits="userSpaceOnUse">
<stop stop-color="#FFE292"/>
<stop offset="0.157303" stop-color="#D1AC75"/>
<stop offset="1" stop-color="#FFE292"/>
</linearGradient>
<linearGradient id="paint28_linear_10_443" x1="54.2769" y1="6.91495" x2="51.7078" y2="4.47576" gradientUnits="userSpaceOnUse">
<stop stop-color="#FFE292"/>
<stop offset="0.157303" stop-color="#D1AC75"/>
<stop offset="1" stop-color="#FFE292"/>
</linearGradient>
<linearGradient id="paint29_linear_10_443" x1="14.564" y1="12.813" x2="22.2531" y2="4.98436" gradientUnits="userSpaceOnUse">
<stop stop-color="#7F5F39"/>
<stop offset="1" stop-color="#BD9B6A"/>
</linearGradient>
<linearGradient id="paint30_linear_10_443" x1="71.042" y1="14.2334" x2="74.3133" y2="17.5642" gradientUnits="userSpaceOnUse">
<stop stop-color="#7F5F39"/>
<stop offset="1" stop-color="#D4BC7B"/>
</linearGradient>
<linearGradient id="paint31_linear_10_443" x1="69.9361" y1="22.4985" x2="77.0806" y2="8.48718" gradientUnits="userSpaceOnUse">
<stop stop-color="#A78A5E"/>
<stop offset="0.764038" stop-color="#7F5F39"/>
<stop offset="0.915726" stop-color="#674C2B"/>
<stop offset="1" stop-color="#674C2B"/>
</linearGradient>
<linearGradient id="paint32_linear_10_443" x1="63.7542" y1="25.6641" x2="43.3003" y2="0.845646" gradientUnits="userSpaceOnUse">
<stop stop-color="#FFEFCF"/>
<stop offset="0.460678" stop-color="#FFE4A6"/>
<stop offset="1" stop-color="#BC956E"/>
</linearGradient>
<linearGradient id="paint33_linear_10_443" x1="2.24551" y1="21.2226" x2="9.33815" y2="14.0012" gradientUnits="userSpaceOnUse">
<stop stop-color="#7F5F39"/>
<stop offset="1" stop-color="#E9CF98"/>
</linearGradient>
<linearGradient id="paint34_linear_10_443" x1="0.969109" y1="20.7928" x2="10.5204" y2="11.0682" gradientUnits="userSpaceOnUse">
<stop stop-color="#7F5F39"/>
<stop offset="1" stop-color="#E4CB90"/>
</linearGradient>
<clipPath id="clip0_10_443">
<rect width="80" height="40" fill="white" transform="translate(0.0447998 0.48645)"/>
</clipPath>
</defs>
</svg>
