<svg width="101" height="39" viewBox="0 0 101 39" fill="none" xmlns="http://www.w3.org/2000/svg">
<g style="mix-blend-mode:luminosity" clip-path="url(#clip0_10_426)">
<path d="M50.1341 0.973511C22.7058 0.973511 0.719177 9.18758 0.719177 19.4861C0.719177 29.722 22.887 37.9995 50.1341 37.9995C77.3818 37.9995 99.5497 29.6942 99.5497 19.4861C99.5497 9.27807 77.3818 0.973511 50.1341 0.973511Z" fill="#003478"/>
<path d="M69.5983 23.4078C69.6115 23.4926 69.7229 23.5739 69.8308 23.6123C69.8705 23.6255 69.89 23.652 69.8484 23.7421C69.5408 24.4011 69.2579 24.7809 68.8722 25.3535C68.5172 25.8825 68.1176 26.2952 67.6338 26.6922C66.9039 27.2956 65.8903 27.9525 65.0523 27.5109C64.6801 27.318 64.519 26.7975 64.5263 26.3761C64.5439 25.1913 65.0715 23.9749 66.0457 22.7794C67.2333 21.3186 68.5462 20.5609 69.4079 20.975C70.2994 21.3999 70.0149 22.4311 69.6156 23.2405C69.5847 23.3032 69.5847 23.3562 69.5979 23.4074M79.1644 14.1755C79.2285 14.0624 79.161 13.9799 79.0181 13.9799C78.2735 13.9799 77.2966 13.9815 76.5207 13.9815C76.3359 13.9815 76.2405 14.0036 76.1534 14.1758C75.867 14.724 72.3771 19.9496 71.7276 20.9644C71.618 21.119 71.4845 21.0973 71.469 20.9202C71.4031 20.3175 70.8822 19.6246 70.0614 19.2931C69.4358 19.0396 68.8243 18.9937 68.1885 19.078C67.0406 19.2322 66.0181 19.8371 65.119 20.5194C63.764 21.5486 62.5949 22.8826 61.0857 23.8682C60.2619 24.4048 59.1336 24.8727 58.3787 24.1742C57.6955 23.5413 57.7727 22.1357 58.818 21.0486C58.9281 20.9346 59.0602 21.0309 59.0394 21.132C58.9409 21.6236 59.0615 22.1126 59.4355 22.4554C59.8915 22.8639 60.5442 22.91 61.1028 22.6374C61.762 22.311 62.1494 21.6809 62.2623 20.9657C62.4369 19.8563 61.5822 18.8778 60.5126 18.7993C59.6438 18.7383 58.8106 19.0404 57.9987 19.7098C57.5916 20.0472 57.3605 20.2965 57.0084 20.7967C56.9227 20.9199 56.7909 20.9322 56.7949 20.7503C56.8347 19.3299 56.2472 18.5307 55.072 18.5047C54.1596 18.4826 53.185 18.9774 52.4253 19.5825C51.5925 20.2507 50.8644 21.1363 50.0837 21.9684C49.9864 22.0708 49.902 22.0659 49.8746 21.8672C49.8525 20.9261 49.6143 20.0146 49.1784 19.3673C49.0241 19.142 48.6994 19.0307 48.4266 19.1826C48.3006 19.2515 47.8625 19.4529 47.5433 19.7096C47.3851 19.8398 47.3232 20.0284 47.3935 20.2701C47.8143 21.6761 47.7219 23.2747 47.1508 24.6249C46.6265 25.8615 45.6077 26.9767 44.4101 27.3542C43.6212 27.6042 42.8012 27.4819 42.2937 26.7831C41.5967 25.8187 41.8781 24.1414 42.9171 22.7488C43.834 21.5225 45.1603 20.7436 46.4831 20.242C46.6387 20.1819 46.671 20.0821 46.6268 19.9501C46.5552 19.7328 46.4402 19.4369 46.3938 19.3018C46.2723 18.979 45.9326 18.9269 45.5178 18.9719C44.5566 19.0836 43.6895 19.4127 42.833 19.8709C40.5902 21.0708 39.4657 23.3932 38.973 24.6356C38.7356 25.2325 38.5327 25.6048 38.2705 25.935C37.9169 26.379 37.4731 26.7832 36.6615 27.4953C36.5881 27.5607 36.5333 27.6967 36.5952 27.8234C36.6779 27.9948 37.1 28.5904 37.2191 28.6435C37.3512 28.7084 37.5046 28.6169 37.566 28.5737C38.1339 28.189 38.8133 27.5794 39.1458 27.1659C39.2625 27.0242 39.3823 27.0838 39.4442 27.2989C39.7545 28.4049 40.5669 29.308 41.6904 29.6858C43.7469 30.3787 45.8799 29.3757 47.4899 27.6297C48.5132 26.52 48.8824 25.8062 49.2746 25.3211C49.9393 24.4983 51.2504 22.6576 52.8121 21.4758C53.3848 21.0399 54.0625 20.7075 54.4032 20.9283C54.6768 21.1054 54.7653 21.5169 54.3264 22.3143C52.7341 25.2192 50.3915 28.6322 49.9619 29.4598C49.8832 29.6034 49.953 29.7164 50.1024 29.7164C50.9356 29.7123 51.7615 29.7144 52.5178 29.7144C52.6438 29.7099 52.7 29.6508 52.7632 29.562C53.9851 27.651 55.135 25.8322 56.3676 23.9518C56.4365 23.8409 56.5001 23.9252 56.5028 23.9738C56.5293 24.4101 56.6354 25.0068 56.8948 25.3987C57.3608 26.1231 58.021 26.4344 58.7533 26.4392C59.3359 26.448 59.6307 26.3575 60.259 26.123C60.7703 25.9335 61.1807 25.6849 61.4957 25.4599C61.6796 25.3318 61.7118 25.546 61.7074 25.5787C61.4245 27.0958 61.7738 28.8933 63.2828 29.6386C65.0888 30.5283 67.0729 29.2778 68.2145 28.1489C68.3263 28.0403 68.4461 28.0518 68.4576 28.2863C68.4841 28.7173 68.6768 29.2287 69.0337 29.5867C69.9904 30.5459 71.9209 30.1657 73.8583 28.6675C75.1022 27.7083 76.4037 26.353 77.5794 24.9179C77.6236 24.8623 77.6554 24.7731 77.5705 24.6825C77.3915 24.4953 77.1325 24.2811 76.955 24.1162C76.8741 24.0473 76.7552 24.0671 76.6872 24.1185C75.482 25.2636 74.3973 26.5695 72.8295 27.6494C72.3007 28.0182 71.4579 28.3156 71.0794 27.8036C70.9318 27.6049 70.9486 27.3301 71.0927 26.9694C71.5498 25.8305 78.7871 14.8215 79.1628 14.1722" fill="white"/>
<path d="M45.1142 15.5039C45.1451 15.6673 45.2088 15.6992 45.2831 15.6855C45.6517 15.6117 46.0551 15.3088 46.294 14.9576C46.5114 14.6392 46.6135 14.1797 46.3974 13.9956C46.2047 13.83 45.8909 13.8768 45.6582 14.0821C45.195 14.4911 45.0543 15.0713 45.114 15.5043M26.6682 29.6752C23.9698 29.6928 21.5924 28.0278 21.3196 25.1435C21.168 23.5452 21.6202 22.1207 22.5255 20.9472C23.3288 19.9015 24.688 19.0328 25.8385 18.8205C26.2129 18.7521 26.716 18.794 26.9239 19.0431C27.2501 19.4225 27.1564 19.8392 26.8302 20.0054C25.9524 20.4532 24.8962 21.2197 24.3736 22.2665C23.9497 23.1208 23.8641 24.1504 24.5115 25.1312C25.5952 26.7659 28.6159 26.8109 31.4245 24.2039C32.1201 23.5659 32.7425 22.9528 33.3753 22.2267C34.6123 20.8135 35.0238 20.2986 36.6681 18.0197C36.6858 17.9933 36.6946 17.9588 36.6858 17.942C36.6725 17.9111 36.6505 17.9066 36.6014 17.9022C35.5037 17.9331 34.5466 18.2595 33.6164 18.9541C33.3485 19.1493 32.963 19.1219 32.7942 18.8649C32.6063 18.5743 32.7411 18.196 33.0501 17.9824C34.5466 16.9426 36.1813 16.754 37.8507 16.4725C37.8493 16.4725 37.9665 16.4769 38.062 16.3515C38.7473 15.4728 39.2647 14.6802 39.9953 13.7915C40.7313 12.8899 41.6821 12.0619 42.4086 11.44C43.4226 10.5689 44.0729 10.2757 44.7338 9.91642C44.9079 9.82545 44.7117 9.71683 44.6587 9.71683C40.9688 9.02394 37.1335 8.12734 33.469 9.48273C30.9311 10.429 29.8189 12.4397 30.3539 13.7833C30.7344 14.7364 31.989 14.8914 33.1636 14.3171C34.1392 13.8395 35.042 13.0699 35.6819 12.0791C36.04 11.5288 36.7944 11.9258 36.3868 12.8813C35.3144 15.3994 33.2659 17.3969 30.7705 17.4812C28.6468 17.5501 27.2766 15.9891 27.281 14.0634C27.2899 10.2651 31.522 7.76307 35.9698 7.38903C41.3263 6.94675 46.3997 8.37231 51.7181 9.01684C55.793 9.50985 59.6997 9.52011 63.7955 8.58005C64.2797 8.47495 64.6194 8.78363 64.5878 9.27222C64.548 9.97849 64.0003 10.6587 62.6514 11.3938C61.1172 12.2344 59.5123 12.4895 57.836 12.5032C53.7828 12.5385 50.0072 10.9584 46.1001 10.1102C46.1046 10.2811 46.1497 10.4846 46.0065 10.5925C43.8423 12.1874 41.886 13.807 40.5759 16.0818C40.5317 16.1343 40.5538 16.1842 40.632 16.1789C41.7696 16.1184 42.7925 16.0893 43.8545 16.0045C44.0402 15.9868 44.0472 15.9426 44.0308 15.8075C43.9367 15.0234 44.1661 14.1293 44.8564 13.5143C45.5629 12.8814 46.4476 12.8094 47.034 13.2652C47.7008 13.7843 47.6417 14.7178 47.2771 15.4179C46.9058 16.1282 46.2927 16.5081 45.7042 16.6926C45.7042 16.6926 45.5804 16.7191 45.599 16.8313C45.6211 17.0106 46.4239 17.4545 46.4925 17.5728C46.5588 17.6854 46.5235 17.8599 46.4028 17.9937C46.318 18.0908 46.1849 18.1818 46.0148 18.1787C45.8773 18.176 45.7938 18.1284 45.6178 18.0334C45.2581 17.8387 44.8084 17.5185 44.5085 17.141C44.4064 17.0134 44.3542 17.0108 44.0991 17.0249C42.9499 17.0911 41.1581 17.2642 39.944 17.4157C39.6496 17.451 39.6063 17.5071 39.5458 17.6091C37.6101 20.7982 35.5433 24.2373 33.2741 26.5398C30.8402 29.0086 28.817 29.6586 26.6693 29.6754" fill="white"/>
<path d="M50.133 4.00082C24.8998 4.00082 4.44637 10.9674 4.44637 19.4921C4.44637 28.0175 24.8998 34.9846 50.133 34.9846C75.3658 34.9846 95.8179 28.0175 95.8179 19.4921C95.8179 10.9674 75.3658 4.00082 50.133 4.00082ZM50.133 36.3886C23.9812 36.3886 2.78143 28.8239 2.78143 19.4921C2.78143 10.159 23.9812 2.59558 50.133 2.59558C76.2823 2.59558 97.4808 10.159 97.4808 19.4921C97.4808 28.8239 76.2823 36.3886 50.133 36.3886Z" fill="white"/>
</g>
<defs>
<clipPath id="clip0_10_426">
<rect width="100" height="38.1944" fill="white" transform="translate(0.13446 0.389282)"/>
</clipPath>
</defs>
</svg>
