<svg width="68" height="69" viewBox="0 0 68 69" fill="none" xmlns="http://www.w3.org/2000/svg">
<path fill-rule="evenodd" clip-rule="evenodd" d="M48.4692 6.23253C58.6157 11.5687 65.5469 22.2074 65.5469 34.4706C65.5469 46.7337 58.6157 57.406 48.4692 62.7095V59.0631C52.3495 56.7418 55.6319 53.4939 58.0203 49.6496L48.4692 45.7727V39.873L58.9478 48.0596C61.1366 44.0158 62.3635 39.4084 62.3635 34.4697C62.3635 24.0625 56.7917 14.9156 48.4692 9.87718V6.23253ZM33.7128 2.61975C39.0188 2.61975 44.0253 3.9129 48.4692 6.23253V9.87885C44.3901 7.42505 39.6151 5.96753 34.575 5.80148L38.2221 31.8859L48.4692 39.8738V45.7735L33.6458 39.774L18.9221 45.8062V39.9392L29.2355 31.8851L32.8499 5.80064C27.7427 5.96669 23.0011 7.42505 18.9221 9.87718V6.23253C23.3332 3.9129 28.3733 2.61975 33.7128 2.61975ZM48.4692 62.7095C44.0253 65.0291 39.018 66.3541 33.7128 66.3541C28.3742 66.3541 23.3341 65.0291 18.9229 62.7422V59.0631C23.2343 61.6805 28.3071 63.1724 33.7128 63.1724C39.0851 63.1724 44.126 61.6805 48.4692 59.0631V62.7095ZM18.9229 62.7422C8.74207 57.406 1.81171 46.7337 1.81171 34.4706C1.81171 22.2074 8.74207 11.5687 18.9229 6.23253V9.87885C10.5661 14.9165 4.99511 24.0306 4.99511 34.4706C4.99511 39.4084 6.25556 44.0829 8.44436 48.1258L18.9229 39.9392V45.8062L9.40542 49.7159C11.793 53.5291 15.0426 56.7427 18.9229 59.0631V62.7422Z" fill="url(#paint0_linear_10_422)"/>
<defs>
<linearGradient id="paint0_linear_10_422" x1="2.27582" y1="38" x2="46.7758" y2="34.5" gradientUnits="userSpaceOnUse">
<stop stop-color="#4D4D4D"/>
<stop offset="1" stop-color="#4D4D4D" stop-opacity="0"/>
</linearGradient>
</defs>
</svg>
