<svg width="68" height="57" viewBox="0 0 68 57" fill="none" xmlns="http://www.w3.org/2000/svg">
<g clip-path="url(#clip0_10_685)">
<g style="mix-blend-mode:luminosity">
<path d="M39.9618 30.7295C39.9086 30.7428 39.6956 30.7428 39.6024 30.7428H32.7337V32.3402H39.7222C39.7755 32.3402 40.1881 32.3402 40.268 32.3269C41.6923 32.1937 42.3446 31.009 42.3446 29.9707C42.3446 28.9058 41.6657 27.761 40.3745 27.6412C40.1216 27.6146 39.9086 27.6146 39.8154 27.6146H35.2496C35.0499 27.6146 34.8236 27.6013 34.7437 27.5747C34.3843 27.4815 34.2512 27.162 34.2512 26.8958C34.2512 26.6562 34.3843 26.3367 34.757 26.2302C34.8635 26.2036 34.9833 26.1903 35.2362 26.1903H41.8254V24.6195H35.1298C34.8502 24.6195 34.6372 24.6328 34.4642 24.6594C33.3194 24.8192 32.5207 25.7377 32.5207 26.9091C32.5207 27.8675 33.1197 28.9857 34.4376 29.172C34.6772 29.1987 35.0099 29.1987 35.1564 29.1987H39.6024C39.6823 29.1987 39.882 29.1987 39.9219 29.212C40.4277 29.2785 40.6008 29.6513 40.6008 29.984C40.6008 30.3035 40.4011 30.6496 39.9618 30.7295Z" fill="#2B2B2B"/>
<path d="M26.9432 30.7295C26.8899 30.7428 26.677 30.7428 26.5971 30.7428H19.715V32.3402H26.7036C26.7568 32.3402 27.1695 32.3402 27.2493 32.3269C28.6737 32.1937 29.3259 31.009 29.3259 29.9707C29.3259 28.9058 28.6471 27.761 27.3558 27.6412C27.1029 27.6146 26.8899 27.6146 26.7968 27.6146H22.2309C22.0312 27.6146 21.8049 27.6013 21.7251 27.5747C21.3657 27.4815 21.2326 27.162 21.2326 26.8958C21.2326 26.6562 21.3657 26.3367 21.7384 26.2302C21.8449 26.2036 21.9647 26.1903 22.2176 26.1903H28.8068V24.6195H22.1111C21.8316 24.6195 21.6186 24.6328 21.4455 24.6594C20.3008 24.8192 19.5021 25.7377 19.5021 26.9091C19.5021 27.8675 20.1011 28.9857 21.4189 29.172C21.6585 29.1987 21.9913 29.1987 22.1377 29.1987H26.5838C26.6636 29.1987 26.8633 29.1987 26.9033 29.212C27.4091 29.2785 27.5821 29.6513 27.5821 29.984C27.5821 30.3035 27.3958 30.6496 26.9432 30.7295Z" fill="#2B2B2B"/>
<path d="M16.1342 24.5663H14.4038V32.3801H16.1342V24.5663Z" fill="#2B2B2B"/>
<path d="M10.5834 32.3801V24.5663H8.85286V30.3967L3.08899 24.5663H0.865967V32.3801H2.59646V26.5231L8.40027 32.3801H10.5834Z" fill="#2B2B2B"/>
<path d="M66.2387 24.5663V30.3967L60.4748 24.5663H58.2518V32.3801H59.9823V26.5231L65.7728 32.3801H67.9559V24.5663H66.2387Z" fill="#2B2B2B"/>
<path d="M49.2399 24.5663L44.3679 32.3801H46.4711L47.3364 30.9824H53.0204L53.8856 32.3801H55.9755L51.1035 24.5663H49.2399ZM52.1285 29.5048H48.2283L50.185 26.3633L52.1285 29.5048Z" fill="#2B2B2B"/>
<path d="M10.4902 20.1335C13.9778 9.95022 23.5887 3.10811 34.4242 3.10811C45.2598 3.10811 54.884 9.95022 58.3583 20.1335L58.3849 20.2134H66.0124V19.2949L62.8443 18.9222C60.8875 18.6959 60.4748 17.8306 59.9424 16.7391L59.8093 16.4729C55.2301 6.72884 45.2598 0.419189 34.4242 0.419189C23.5754 0.419189 13.6184 6.72884 9.03922 16.4995L8.90611 16.7657C8.37365 17.8572 7.96099 18.7225 6.0042 18.9488L2.83607 19.3215V20.24H10.4502L10.4902 20.1335Z" fill="#2B2B2B"/>
<path d="M58.3849 36.7463L58.3583 36.8262C54.8707 47.0095 45.2598 53.8383 34.4242 53.8383C23.5887 53.8383 13.9645 46.9962 10.4902 36.8129L10.4636 36.733H2.84938V37.6515L6.01752 38.0242C7.97431 38.2505 8.38696 39.1158 8.91942 40.2073L9.05254 40.4736C13.6317 50.2442 23.602 56.5538 34.4376 56.5538C45.2731 56.5538 55.2434 50.2442 59.8226 40.4869L59.9557 40.2206C60.4881 39.1291 60.9008 38.2639 62.8576 38.0376L66.0257 37.6648V36.7463H58.3849Z" fill="#2B2B2B"/>
</g>
</g>
<defs>
<clipPath id="clip0_10_685">
<rect width="67.0897" height="56.1346" fill="white" transform="translate(0.865479 0.419189)"/>
</clipPath>
</defs>
</svg>
