<svg width="68" height="67" viewBox="0 0 68 67" fill="none" xmlns="http://www.w3.org/2000/svg">
<g style="mix-blend-mode:luminosity">
<path d="M34.3243 66.8881L43.7101 14.1022C52.6564 14.1022 55.4782 15.0832 55.8856 19.0874C55.8856 19.0874 61.8871 16.8497 64.914 12.305C53.1022 6.83166 41.234 6.58482 41.234 6.58482L34.3087 15.0197L34.3243 15.0187L27.399 6.5835C27.399 6.5835 15.5306 6.8306 3.7204 12.3039C6.74465 16.8487 12.7484 19.0864 12.7484 19.0864C13.1583 15.0819 15.9767 14.1009 24.8629 14.0945L34.3243 66.8881Z" fill="url(#paint0_linear_10_682)"/>
<path d="M34.3207 4.14857C43.8688 4.07555 54.7978 5.62564 65.9858 10.5019C67.4811 7.81043 67.8655 6.62094 67.8655 6.62094C55.6354 1.78229 44.1821 0.126376 34.3193 0.0848389C24.4571 0.126376 13.0043 1.78256 0.775818 6.62094C0.775818 6.62094 1.32135 8.08611 2.65424 10.5019C13.8401 5.62564 24.7709 4.07555 34.3193 4.14857H34.3207Z" fill="url(#paint1_linear_10_682)"/>
</g>
<defs>
<linearGradient id="paint0_linear_10_682" x1="72.8777" y1="26.8182" x2="17.2389" y2="27.7398" gradientUnits="userSpaceOnUse">
<stop stop-color="#E82127"/>
<stop offset="1" stop-color="#E82127" stop-opacity="0"/>
</linearGradient>
<linearGradient id="paint1_linear_10_682" x1="76.5965" y1="3.58017" x2="16.2471" y2="9.9247" gradientUnits="userSpaceOnUse">
<stop stop-color="#E82127"/>
<stop offset="1" stop-color="#E82127" stop-opacity="0"/>
</linearGradient>
</defs>
</svg>
