<svg width="24" height="24" viewBox="0 0 24 24" fill="none" xmlns="http://www.w3.org/2000/svg">
<path d="M5.70849 12.0093C6.43201 12.0093 7.01854 11.4227 7.01854 10.6992C7.01854 9.97569 6.43201 9.38916 5.70849 9.38916C4.98497 9.38916 4.39844 9.97569 4.39844 10.6992C4.39844 11.4227 4.98497 12.0093 5.70849 12.0093Z" stroke="black" stroke-width="2" stroke-miterlimit="10"/>
<path d="M9.43476 10.6992C9.43476 8.64403 7.76867 6.97794 5.71349 6.97794C3.66395 6.97794 2.00842 8.61985 1.9923 10.6693C1.98461 11.6462 2.38252 12.5115 2.96231 13.205C3.61671 13.9877 5.71345 15.9228 5.71345 15.9228C5.71345 15.9228 7.72746 14.0537 8.45835 13.2118C9.04691 12.5338 9.43476 11.6677 9.43476 10.6992Z" stroke="black" stroke-width="2" stroke-miterlimit="10"/>
<path d="M5.71773 22.0004C6.66209 22.0004 7.42764 21.2348 7.42764 20.2905C7.42764 19.3461 6.66209 18.5806 5.71773 18.5806C4.77337 18.5806 4.00781 19.3461 4.00781 20.2905C4.00781 21.2348 4.77337 22.0004 5.71773 22.0004Z" stroke="black" stroke-width="2" stroke-miterlimit="10"/>
<path d="M19.0615 5.41983C20.0058 5.41983 20.7714 4.65427 20.7714 3.70991C20.7714 2.76555 20.0058 2 19.0615 2C18.1171 2 17.3516 2.76555 17.3516 3.70991C17.3516 4.65427 18.1171 5.41983 19.0615 5.41983Z" stroke="black" stroke-width="2" stroke-miterlimit="10"/>
<path d="M7.42969 20.2902H17.8733C20.162 20.2902 22.0173 18.4349 22.0173 16.1462C22.0173 13.8576 20.162 12.0023 17.8733 12.0023H15.8088C13.5201 12.0023 11.6648 10.1469 11.6648 7.85827V7.8537C11.6648 5.56504 13.5201 3.70972 15.8088 3.70972H17.3577" stroke="black" stroke-width="2" stroke-miterlimit="10"/>
</svg>
