<svg width="24" height="24" viewBox="0 0 24 24" fill="none" xmlns="http://www.w3.org/2000/svg">
<mask id="mask0_4_707" style="mask-type:luminance" maskUnits="userSpaceOnUse" x="0" y="0" width="24" height="24">
<path d="M0 0H24V24H0V0Z" fill="white"/>
</mask>
<g mask="url(#mask0_4_707)">
<path d="M20.0025 10.0002V7.33286C20.0025 5.8605 18.8089 4.66685 17.3365 4.66685H17.3358V10.0002H20.0025Z" stroke="black" stroke-width="2" stroke-miterlimit="10" stroke-linecap="round" stroke-linejoin="round"/>
<path d="M17.3308 4.66663C17.3308 3.19398 16.1369 1.99995 14.6641 1.99995H9.33082C7.85809 1.99995 6.66418 3.19398 6.66418 4.66663V19.3333H17.3308V4.66663Z" stroke="black" stroke-width="2" stroke-miterlimit="10" stroke-linecap="round" stroke-linejoin="round"/>
<path d="M9.32812 8.66675H14.6614V4.66675H9.32812V8.66675Z" stroke="black" stroke-width="2" stroke-miterlimit="10" stroke-linecap="round" stroke-linejoin="round"/>
<path d="M20 22C20 21.2927 19.719 20.6147 19.219 20.1144C18.7189 19.6143 18.0406 19.3333 17.3333 19.3333H6.66668C5.95946 19.3333 5.28116 19.6143 4.78108 20.1144C4.28095 20.6147 4 21.2927 4 22H20Z" stroke="black" stroke-width="2" stroke-miterlimit="10" stroke-linecap="round" stroke-linejoin="round"/>
<path d="M12 11.3331C12 11.3331 10 12.9998 10 14.6665C10 15.7705 10.8961 16.6665 12 16.6665C13.1039 16.6665 14 15.7705 14 14.6665C14 12.9998 12 11.3331 12 11.3331Z" stroke="black" stroke-width="2" stroke-miterlimit="10" stroke-linecap="round" stroke-linejoin="round"/>
<path d="M17.3358 15.3332C17.3358 16.0695 17.9328 16.6665 18.6691 16.6665C19.4056 16.6665 20.0025 16.0695 20.0025 15.3332V9.99982" stroke="black" stroke-width="2" stroke-miterlimit="10" stroke-linecap="round" stroke-linejoin="round"/>
<path d="M2 22H22" stroke="black" stroke-width="2" stroke-miterlimit="10" stroke-linecap="round" stroke-linejoin="round"/>
</g>
</svg>
