<svg width="24" height="24" viewBox="0 0 24 24" fill="none" xmlns="http://www.w3.org/2000/svg">
<path d="M20.3043 18.6102C21.2404 18.6102 21.9992 19.369 21.9992 20.3051C21.9992 21.2412 21.2404 22 20.3043 22C19.3682 22 18.6094 21.2412 18.6094 20.3051C18.6094 19.369 19.3682 18.6102 20.3043 18.6102Z" stroke="black" stroke-width="2" stroke-miterlimit="10" stroke-linecap="round" stroke-linejoin="round"/>
<path d="M11.9996 18.6102C12.9357 18.6102 13.6945 19.369 13.6945 20.3051C13.6945 21.2412 12.9357 22 11.9996 22C11.0635 22 10.3047 21.2412 10.3047 20.3051C10.3047 19.369 11.0635 18.6102 11.9996 18.6102Z" stroke="black" stroke-width="2" stroke-miterlimit="10" stroke-linecap="round" stroke-linejoin="round"/>
<path d="M3.69492 18.6102C4.63099 18.6102 5.38983 19.369 5.38983 20.3051C5.38983 21.2412 4.63099 22 3.69492 22C2.75884 22 2 21.2412 2 20.3051C2 19.369 2.75884 18.6102 3.69492 18.6102Z" stroke="black" stroke-width="2" stroke-miterlimit="10" stroke-linecap="round" stroke-linejoin="round"/>
<path d="M3.69492 2C4.63099 2 5.38983 2.75884 5.38983 3.69492C5.38983 4.63099 4.63099 5.38983 3.69492 5.38983C2.75884 5.38983 2 4.63099 2 3.69492C2 2.75884 2.75884 2 3.69492 2Z" stroke="black" stroke-width="2" stroke-miterlimit="10" stroke-linecap="round" stroke-linejoin="round"/>
<path d="M11.9996 2.00006C12.9357 2.00006 13.6945 2.7589 13.6945 3.69498C13.6945 4.63105 12.9357 5.38989 11.9996 5.38989C11.0635 5.38989 10.3047 4.63105 10.3047 3.69498C10.3047 2.7589 11.0635 2.00006 11.9996 2.00006Z" stroke="black" stroke-width="2" stroke-miterlimit="10" stroke-linecap="round" stroke-linejoin="round"/>
<path d="M20.3055 18.6101V13.8643C20.3055 12.9283 19.5466 12.1694 18.6106 12.1694H3.69531V5.38977" stroke="black" stroke-width="2" stroke-miterlimit="10" stroke-linecap="round" stroke-linejoin="round"/>
<path d="M3.69531 12.1694V18.6101" stroke="black" stroke-width="2" stroke-miterlimit="10" stroke-linecap="round" stroke-linejoin="round"/>
<path d="M12 18.6102V5.38983" stroke="black" stroke-width="2" stroke-miterlimit="10" stroke-linecap="round" stroke-linejoin="round"/>
<path d="M20.3043 2.00006C21.2404 2.00006 21.9992 2.7589 21.9992 3.69498C21.9992 4.63105 21.2404 5.38989 20.3043 5.38989C19.3682 5.38989 18.6094 4.63105 18.6094 3.69498C18.6094 2.7589 19.3682 2.00006 20.3043 2.00006Z" stroke="black" stroke-width="2" stroke-miterlimit="10" stroke-linecap="round" stroke-linejoin="round"/>
<path d="M20.3047 8.77954V5.38971" stroke="black" stroke-width="2" stroke-miterlimit="10" stroke-linecap="round" stroke-linejoin="round"/>
</svg>
