<svg width="24" height="24" viewBox="0 0 24 24" fill="none" xmlns="http://www.w3.org/2000/svg">
<mask id="mask0_4_760" style="mask-type:luminance" maskUnits="userSpaceOnUse" x="0" y="0" width="24" height="24">
<path d="M24 0H0V24H24V0Z" fill="white"/>
</mask>
<g mask="url(#mask0_4_760)">
<mask id="mask1_4_760" style="mask-type:luminance" maskUnits="userSpaceOnUse" x="0" y="0" width="24" height="24">
<path d="M0 1.90735e-06H24V24H0V1.90735e-06Z" fill="white"/>
</mask>
<g mask="url(#mask1_4_760)">
<path d="M16.6797 5.625C16.6797 8.21386 14.581 10.3125 11.9922 10.3125C9.40333 10.3125 7.30469 8.21386 7.30469 5.625C7.30469 3.03614 9.40333 0.937501 11.9922 0.937501C14.581 0.937501 16.6797 3.03614 16.6797 5.625Z" stroke="black" stroke-width="2" stroke-miterlimit="10" stroke-linecap="round" stroke-linejoin="round"/>
<path d="M19.9238 18.2432C19.9238 13.8632 16.3732 10.3125 11.9932 10.3125C7.61319 10.3125 4.0625 13.8632 4.0625 18.2432V19.517H8.44766L11.9932 23.0625L15.5387 19.517H19.9238V18.2432Z" stroke="black" stroke-width="2" stroke-miterlimit="10" stroke-linecap="round" stroke-linejoin="round"/>
</g>
</g>
</svg>
