<svg width="67" height="67" viewBox="0 0 67 67" fill="none" xmlns="http://www.w3.org/2000/svg">
<circle cx="33.1692" cy="33.1692" r="33.1692" fill="#FEA501"/>
<path d="M46.4368 19.9016H19.9014C18.0605 19.9016 16.6011 21.3776 16.6011 23.2185L16.5845 43.12C16.5845 44.9609 18.0605 46.4369 19.9014 46.4369H46.4368C48.2777 46.4369 49.7537 44.9609 49.7537 43.12V23.2185C49.7537 21.3776 48.2777 19.9016 46.4368 19.9016ZM33.1691 29.8523H26.5352V31.5108H31.5106C32.4228 31.5108 33.1691 32.2571 33.1691 33.1692V38.1446C33.1691 39.0568 32.4228 39.8031 31.5106 39.8031H29.8522V41.4615H26.5352V39.8031H23.2183V36.4862H29.8522V34.8277H24.8768C23.9646 34.8277 23.2183 34.0814 23.2183 33.1692V28.1939C23.2183 27.2817 23.9646 26.5354 24.8768 26.5354H26.5352V24.8769H29.8522V26.5354H33.1691V29.8523ZM39.8029 40.2177L36.486 36.9008H43.1199L39.8029 40.2177ZM36.486 29.8523L39.8029 26.5354L43.1199 29.8523H36.486Z" fill="#2B2B2B"/>
</svg>
