<svg width="67" height="67" viewBox="0 0 67 67" fill="none" xmlns="http://www.w3.org/2000/svg">
<circle cx="33.1692" cy="33.7538" r="33.1692" fill="#FEA501"/>
<path d="M37.4089 39.6391L36.6543 40.4352C36.6543 40.4352 34.8581 42.3243 29.9571 37.1645C25.0561 32.0048 26.8523 30.1157 26.8523 30.1157L27.3283 29.6132C28.4992 28.3792 28.6103 26.3989 27.587 24.9527L25.4972 21.9955C24.2301 20.2043 21.7838 19.9688 20.3325 21.4963L17.7303 24.2345C17.0121 24.9925 16.5312 25.9727 16.5892 27.0623C16.7385 29.8487 17.9293 35.841 24.5701 42.8351C31.6139 50.2488 38.2232 50.544 40.925 50.277C41.7808 50.194 42.5238 49.7313 43.1226 49.1011L45.4777 46.6199C47.0699 44.9448 46.6221 42.0755 44.5854 40.9045L41.4176 39.0801C40.0808 38.3122 38.4538 38.5378 37.4089 39.6374V39.6391Z" fill="#2B2B2B"/>
<path d="M41.4626 33.7547C43.266 33.7544 45.0201 33.1662 46.4591 32.0793C47.8982 30.9925 48.9437 29.4661 49.4373 27.7316C49.9308 25.997 49.8455 24.1489 49.1943 22.4672C48.543 20.7855 47.3613 19.362 45.8283 18.4123C44.2952 17.4626 42.4943 17.0386 40.6986 17.2044C38.9029 17.3702 37.2101 18.1169 35.8769 19.3313C34.5437 20.5457 33.6427 22.1616 33.3104 23.9341C32.9782 25.7066 33.2328 27.5391 34.0356 29.1539C34.1874 29.4471 34.2269 29.7856 34.1467 30.1059L33.6525 31.9519C33.6036 32.1346 33.6036 32.327 33.6526 32.5098C33.7016 32.6925 33.7978 32.8592 33.9316 32.993C34.0654 33.1268 34.232 33.223 34.4148 33.272C34.5975 33.321 34.7899 33.321 34.9727 33.2721L36.8187 32.7778C37.1389 32.6976 37.4775 32.7371 37.7707 32.8889C38.9175 33.4599 40.1815 33.7563 41.4626 33.7547Z" fill="#2B2B2B"/>
</svg>
